<svg version="1.1" id="Ebene_1" xmlns="http://www.w3.org/2000/svg" xmlns:xlink="http://www.w3.org/1999/xlink" x="0px" y="0px"
	 viewBox="0 0 43 43" style="enable-background:new 0 0 43 43;" xml:space="preserve" width='40' height='40'>
<style type="text/css">
	.st0{fill:#FFFFFF;}
	.st1{fill:#1D1D1B;}
	.st2{fill:none;stroke:#1D1D1B;stroke-width:2;stroke-miterlimit:10;}
</style>
<g>
	<path class="st0" d="M21.5,41.7c-11.1,0-20.2-9.1-20.2-20.2c0-11.1,9.1-20.2,20.2-20.2s20.2,9.1,20.2,20.2
		C41.7,32.7,32.6,41.7,21.5,41.7z"/>
	<path class="st1" d="M21.5,2.3c10.6,0,19.2,8.6,19.2,19.2s-8.6,19.2-19.2,19.2S2.3,32.1,2.3,21.5S10.9,2.3,21.5,2.3 M21.5,0.3
		C9.8,0.3,0.3,9.8,0.3,21.5s9.5,21.2,21.2,21.2s21.2-9.5,21.2-21.2S33.2,0.3,21.5,0.3L21.5,0.3z"/>
</g>
<line class="st2" x1="12" y1="21.5" x2="31" y2="21.5"/>
</svg>
